<?xml version="1.0" standalone="no"?>
<!DOCTYPE svg PUBLIC "-//W3C//DTD SVG 1.1//EN" "http://www.w3.org/Graphics/SVG/1.1/DTD/svg11.dtd" >
<svg xmlns="http://www.w3.org/2000/svg">
<metadata>
This is a custom SVG webfont generated by Font Squirrel.
Copyright   : Copyright c 2011 Natanael Gama exondiscoveredcom with Reserved Font Name Exo
Designer    : Natanael Gama
</metadata>
<defs>
<font id="ExoExtraLightItalic" horiz-adv-x="694" >
<font-face units-per-em="2048" ascent="1638" descent="-410" />
<missing-glyph horiz-adv-x="489" />
<glyph unicode=" "  horiz-adv-x="489" />
<glyph unicode="&#x09;" horiz-adv-x="489" />
<glyph unicode="&#xa0;" horiz-adv-x="489" />
<glyph unicode="!" horiz-adv-x="501" d="M172 33l21 123q4 33 38 32h52q33 0 28 -32l-20 -123q-2 -33 -37 -33h-53q-33 0 -29 33zM252 403l162 1094h92l-184 -1094h-70z" />
<glyph unicode="&#x22;" horiz-adv-x="651" d="M270 1087l27 275l22 137h87l-23 -137l-57 -275h-56zM500 1087l26 275l23 137h86l-23 -137l-57 -275h-55z" />
<glyph unicode="#" horiz-adv-x="1331" d="M115 500l16 51h352l123 393h-352l18 51h353l159 504h52l-160 -504h366l160 504h51l-157 -504h362l-18 -51h-363l-123 -395h363l-17 -51h-362l-160 -498h-51l158 498l-367 2l-158 -500h-53l158 500h-350zM537 551l364 -2l123 395h-365z" />
<glyph unicode="$" horiz-adv-x="1175" d="M164 20l10 58q258 -12 467 -12q322 0 360 253l21 140q20 127 -22 180t-185 53h-227q-358 0 -307 320l22 135q33 209 146.5 285.5t324.5 78.5l27 177h65l-28 -181q178 -8 366 -39l-8 -57l-426 19q-168 6 -262 -53.5t-121 -229.5l-22 -135q-20 -131 37 -182.5t196 -51.5 h231q100 0 164 -26.5t88.5 -70.5t31.5 -101.5t-7 -120.5l-21 -140q-16 -106 -63 -177.5t-117.5 -104.5t-143.5 -44t-165 -9l-27 -166h-63l26 170q-276 18 -368 32z" />
<glyph unicode="%" horiz-adv-x="2000" d="M236 971l43 272q20 137 84.5 196.5t218.5 59.5h206q141 0 191.5 -60.5t30.5 -195.5l-43 -272q-23 -141 -86.5 -198.5t-214.5 -57.5h-207q-137 0 -190 62.5t-33 193.5zM301 971q-18 -109 19.5 -150t146.5 -41h207q111 0 160 39t67 152l43 272q16 106 -16.5 148.5 t-147.5 42.5h-207q-113 0 -162 -39t-67 -152zM461 0l1134 1499h78l-1134 -1499h-78zM1143 260l43 272q20 137 83.5 196.5t217.5 59.5h207q143 0 193 -60t30 -196l-43 -272q-23 -139 -87.5 -197.5t-215.5 -58.5h-207q-137 0 -189 62.5t-32 193.5zM1208 260 q-18 -109 20 -149.5t144 -40.5h207q111 0 161 38.5t68 151.5l43 272q16 106 -17.5 148.5t-147.5 42.5h-207q-113 0 -161 -39t-67 -152z" />
<glyph unicode="&#x26;" horiz-adv-x="1363" d="M145.5 475.5q47.5 153.5 204.5 274.5l199 149l-100 174q-70 119 -52.5 207t79 140.5t151.5 66.5q231 37 573 -14l-8 -52h-430q-186 0 -257 -77.5t13 -239.5l436 -760l340 289l25 -25l-160 -196l-160 -138l162 -274h-84l-137 227l-164 -137q-86 -72 -196.5 -92.5t-218 23 t-173.5 145.5q-90 156 -42.5 309.5zM221.5 455.5q-39.5 -125.5 34.5 -244.5q72 -117 209 -137.5t256 76.5l176 145l-309 532l-180 -135q-147 -111 -186.5 -236.5z" />
<glyph unicode="'" horiz-adv-x="307" d="M225 1087l27 275l22 137h86l-22 -137l-57 -275h-56z" />
<glyph unicode="(" horiz-adv-x="604" d="M234.5 498q3.5 133 23.5 264q76 469 406 960q87 122 88 121h96q-16 -20 -45 -59t-104.5 -159t-139 -241.5t-128 -297t-91.5 -336.5q-29 -190 -23.5 -356.5t35 -302.5t63.5 -233.5t60 -151.5l27 -54h-92q-6 10 -14.5 28.5t-33 80t-45 127t-43 168t-33 206t-7 236.5z" />
<glyph unicode=")" horiz-adv-x="606" d="M-27 -348q16 20 44 56t104 151.5t138.5 236.5t128 300t93.5 352q27 178 22 339.5t-35 300t-62.5 240t-59.5 158.5l-27 57h91q6 -10 14 -30.5t31.5 -85t44 -133t42 -173t33 -206t9.5 -228.5t-21 -246q-29 -178 -90 -356t-127.5 -305t-129 -227.5t-103.5 -150.5l-41 -50 h-99z" />
<glyph unicode="*" horiz-adv-x="958" d="M285 1194l6 47l295 25l-11 -82zM385 842l104 274l84 -16l-147 -273zM596 1001l57 74l207 -176l-31 -37zM604 1477l47 16l105 -248l-86 -37zM709 1143l260 166l18 -41l-231 -189z" />
<glyph unicode="+" horiz-adv-x="1067" d="M205 688l14 82h363l57 365h84l-57 -365h364l-14 -82h-365l-57 -364h-84l57 364h-362z" />
<glyph unicode="," horiz-adv-x="415" d="M135 -154l4 31q43 0 49 41l15 82h-17q-35 0 -28 35l18 121q6 37 41 37h49q31 0 27 -37l-35 -213q-16 -103 -108 -98z" />
<glyph unicode="-" d="M123 553l14 82h602l-14 -82h-602z" />
<glyph unicode="." horiz-adv-x="419" d="M158 33l18 123q6 33 39 32h51q35 0 29 -32l-21 -123q-2 -33 -36 -33h-52q-34 0 -28 33z" />
<glyph unicode="/" horiz-adv-x="671" d="M16 -147l848 1724h84l-848 -1724h-84z" />
<glyph unicode="0" horiz-adv-x="1323" d="M215 332l133 835q25 164 134.5 248t269.5 84h295q176 0 244.5 -93t45.5 -239l-133 -835q-53 -332 -395 -332h-295q-154 0 -240 80t-59 252zM299 332q-37 -248 229 -248h295q260 0 297 248l133 835q37 248 -219 248h-295q-129 0 -208.5 -65.5t-98.5 -182.5z" />
<glyph unicode="1" horiz-adv-x="798" d="M274 1257l11 58q183 0 415 169q21 16 21 15h80l-234 -1499h-84l224 1393q-68 -47 -186 -91.5t-247 -44.5z" />
<glyph unicode="2" horiz-adv-x="1189" d="M96 0l13 78q1001 676 1056 1014q31 180 -41.5 261t-240.5 81h-574l8 59q215 27 588 27q209 0 292 -119t54 -314q-14 -109 -111.5 -244.5t-212 -245.5t-269 -231.5t-232.5 -177t-154 -104.5h818l-13 -84h-981z" />
<glyph unicode="3" horiz-adv-x="1196" d="M80 20l10 52h576q121 0 211 61.5t112 202.5l21 121q37 236 -238 245l-455 15l9 59l460 15q121 4 210 65.5t108 173.5l22 141q20 131 -45 189.5t-188 58.5h-604l8 51q164 41 621 33q166 -2 241.5 -96t50.5 -242l-22 -141q-20 -131 -99 -198.5t-153 -77.5q72 -25 126 -97.5 t36 -199.5l-21 -121q-53 -344 -418 -344q-464 -1 -579 34z" />
<glyph unicode="4" horiz-adv-x="1191" d="M113 477l798 1022h103l-774 -995h702l74 463l65 153h45l-98 -616h184l-8 -60l-188 -26l-66 -414h-86l66 414h-787z" />
<glyph unicode="5" horiz-adv-x="1265" d="M162 20l8 58h614q109 0 195 73.5t106 192.5l33 201q43 264 -203 264h-311q-92 0 -174 -64.5t-96 -156.5h-80l188 911h867l-13 -84h-786l-131 -633q29 37 92.5 73t149.5 38h301q162 0 233.5 -94t46.5 -250l-35 -209q-16 -100 -57 -172t-98.5 -108.5t-114.5 -52t-119 -15.5 q-411 -5 -616 28z" />
<glyph unicode="6" horiz-adv-x="1290" d="M224 398q-3 152 30 388q59 373 187 549t280 176q385 0 573 -24l-10 -60h-559q-82 0 -151.5 -63.5t-114.5 -164.5t-74 -196.5t-43 -187.5q229 27 559 31q98 0 165 -25.5t93.5 -68.5t37.5 -97.5t-3 -109.5l-37 -242q-27 -164 -117 -234.5t-243 -70.5h-269q-86 0 -147.5 35 t-107.5 124t-49 241zM334 760q-111 -680 198 -680h265q240 0 276 225l35 230q23 131 -30.5 178t-180.5 47h-563z" />
<glyph unicode="7" horiz-adv-x="1110" d="M274 1415l15 84h911l29 -65l-733 -1434h-99l725 1415h-848z" />
<glyph unicode="8" horiz-adv-x="1308" d="M198 250.5q5 37.5 5 64.5l30 203q16 106 90 166.5t148 63.5q-195 45 -158 284l21 133q31 195 131 269.5t276 74.5h260q166 0 239 -92t46 -272l-22 -133q-10 -76 -69.5 -148.5t-147.5 -85.5q174 -53 137 -262l-31 -201q-49 -315 -375 -315h-256q-98 0 -167.5 24.5 t-99.5 62.5t-46 82t-11 81.5zM287 309q-18 -119 48 -172t200 -53h247q98 0 181.5 54.5t101.5 170.5l35 215q10 66 -4.5 109t-50 61.5t-68.5 24.5t-78 6h-291q-90 0 -180 -49t-106 -152zM395 1012q-10 -66 5.5 -109t53.5 -62.5t75.5 -26.5t86.5 -7h287q123 0 193.5 63.5 t81.5 141.5l22 139q25 150 -28.5 212t-184.5 62h-256q-150 0 -221.5 -64.5t-93.5 -209.5z" />
<glyph unicode="9" horiz-adv-x="1290" d="M176 16l8 60h561q84 0 154 63.5t115 166t71.5 196.5t42.5 186q-227 -27 -567 -31q-334 0 -285 310l37 239q47 299 379 299h258q393 0 269 -800q-59 -371 -187.5 -542t-279.5 -171q-410 -1 -576 24zM358 958q-20 -127 37.5 -171t184.5 -44h557q111 680 -193 680h-264 q-250 0 -285 -225z" />
<glyph unicode=":" horiz-adv-x="428" d="M164 33l20 123q4 33 37 32h53q33 0 27 -32l-18 -123q-6 -33 -39 -33h-51q-33 0 -29 33zM299 928l20 125q4 35 37 34h54q33 0 28 -34l-20 -125q-6 -31 -39 -31h-51q-33 0 -29 31z" />
<glyph unicode=";" horiz-adv-x="421" d="M135 -154l4 31q43 0 49 41l15 82h-17q-33 0 -28 35l18 121q6 37 41 37h49q31 0 27 -37l-35 -213q-16 -103 -108 -98zM301 930l18 125q6 33 39 32h52q35 0 28 -32l-18 -125q-6 -31 -39 -31h-51q-35 0 -29 31z" />
<glyph unicode="&#x3c;" horiz-adv-x="966" d="M203 684l12 84l789 373l-17 -92l-680 -326l574 -350l-13 -84z" />
<glyph unicode="=" horiz-adv-x="948" d="M109 434l14 84h874l-14 -84h-874zM186 930l15 84h874l-14 -84h-875z" />
<glyph unicode="&#x3e;" horiz-adv-x="968" d="M147 289l15 92l690 348l-584 332l15 80l667 -373l-12 -84z" />
<glyph unicode="?" horiz-adv-x="1107" d="M256 1432l8 55q283 33 535 26q217 2 300 -98t54 -280l-31 -207q-33 -209 -173 -281t-408 -39l-17 -103q-16 -103 -16 -106h-88l43 279q31 -2 119 -2t118 2q295 0 338 250l33 207q25 162 -41.5 229.5t-249.5 67.5h-524zM352 33l21 123q4 33 39 32h51q33 0 29 -32l-21 -123 q-6 -33 -39 -33h-51q-33 0 -29 33z" />
<glyph unicode="@" horiz-adv-x="1820" d="M131 18l166 1049q59 365 420 365h768q168 0 240.5 -94.5t46.5 -270.5l-109 -725q-4 -31 -9 -53.5t-19.5 -68.5t-39 -77.5t-60.5 -65.5t-92.5 -52.5t-125.5 -18.5h-76l-14 123q-49 -53 -163 -94t-224 -43q-190 -4 -275.5 121t-36.5 450q82 526 441 551q127 8 259 -23.5 t206 -103.5l-131 -899q45 0 80.5 7t78.5 31t74 78t43 138l109 725q25 166 -32 223.5t-175 57.5h-772q-156 0 -233 -81t-95 -200l-166 -1049q-23 -137 39.5 -219t194.5 -82h788l-8 -51q-164 -33 -596 -33h-201q-158 0 -243 109.5t-58 275.5zM600 295q4 -86 41 -135t80 -66.5 t108 -17.5q236 -4 404 123l115 766q-152 70 -365 65q-314 -12 -375 -510q-12 -139 -8 -225z" />
<glyph unicode="A" horiz-adv-x="1327" d="M92 0l795 1499h98l295 -1499h-84l-96 483h-658l-256 -483h-94zM487 567h596l-159 828z" />
<glyph unicode="B" horiz-adv-x="1212" d="M164 0l237 1499h539q338 0 338 -287q0 -38 -6 -82q-20 -143 -106.5 -236t-188.5 -110q79 -18 145 -120q49 -75 48 -181q0 -37 -5 -77q-57 -406 -463 -406h-538zM262 86h455q311 0 364 334q5 32 5 62q0 96 -56 168q-72 93 -203 93h-6h-454zM381 827h455q133 0 228 80 t122 221q10 52 10 94q0 90 -45 132q-66 62 -223 61h-455z" />
<glyph unicode="C" horiz-adv-x="1163" d="M216 526q2 110 22 238q31 190 70.5 319t109 232.5t177 152t259.5 48.5q174 0 453 -54l-9 -59q-233 29 -429 29h-25q-98 0 -170 -25t-142.5 -94.5t-123 -209.5t-86.5 -353q-22 -137 -22 -247q0 -425 327 -431h27q166 0 438 22l-9 -61q-215 -45 -467 -45q-111 0 -191.5 42 t-125.5 114t-65 172q-18 90 -19 187q1 11 1 23z" />
<glyph unicode="D" horiz-adv-x="1353" d="M164 0l237 1499h531q133 0 225 -53t136 -133q43 -79 61 -187q14 -84 14 -160q0 -22 -1 -42q-5 -94 -24 -191q-61 -334 -215.5 -533.5t-422.5 -199.5h-541zM262 86h451q121 0 219 59.5t162.5 158.5t105.5 209t62 232q22 131 22 237q0 433 -366 433h-447z" />
<glyph unicode="E" horiz-adv-x="1153" d="M201 258l155 981q43 260 281 260h18l619 -24l-8 -60h-623q-174 0 -203 -182l-71 -447l712 -14l-10 -59l-715 -15l-71 -446q-4 -25 -3 -47q0 -27 5 -48q10 -38 38.5 -53.5t56.5 -20.5t71 -5h602l-11 -60l-606 -24q-11 -1 -21 -1q-103 0 -169 55q-53 44 -53 138q0 33 6 72z " />
<glyph unicode="F" horiz-adv-x="1144" d="M164 0l192 1227q45 272 282 272h19l619 -24l-8 -60h-625q-174 0 -201 -182l-69 -447l712 -14l-10 -59l-717 -15l-110 -698h-84z" />
<glyph unicode="G" horiz-adv-x="1288" d="M221 472q2 126 29 294q25 143 50.5 245.5t69.5 204t104.5 163t151.5 99.5t210 38q193 0 491 -58l-10 -67q-309 39 -494 41q-203 0 -316.5 -154t-170.5 -526q-27 -170 -27 -296q0 -135 31 -220q59 -164 274 -164q159 0 465 106l86 533h-405l8 53q125 33 356 33 q66 0 140 -6l-125 -791h-60l-6 113q-63 -39 -207.5 -82t-263.5 -43q-145 0 -234 62.5t-119 179.5q-28 109 -28 226v16z" />
<glyph unicode="H" horiz-adv-x="1327" d="M174 0l238 1499h84l-117 -733h838l116 733h84l-237 -1499h-84l108 684h-837l-109 -684h-84z" />
<glyph unicode="I" horiz-adv-x="415" d="M184 0l238 1499h84l-238 -1499h-84z" />
<glyph unicode="J" horiz-adv-x="679" d="M78 43l16 57q74 -23 134 -28q16 -2 34 -2q45 0 94 10q70 14 118 78.5t67 179.5l184 1161h84l-184 -1161q-33 -225 -154 -301q-75 -49 -190 -49h-9q-122 2 -194 55z" />
<glyph unicode="K" horiz-adv-x="1110" d="M164 0l237 1499h84l-112 -704h268l588 704h106l-620 -749l383 -750h-101l-360 709h-275l-112 -709h-86z" />
<glyph unicode="L" horiz-adv-x="1110" d="M203 258l198 1241h82l-196 -1241q-5 -28 -5 -52t5 -43q10 -38 39.5 -53.5t57.5 -20.5t71 -5h585l-12 -84h-582q-248 0 -248 197q0 28 5 61z" />
<glyph unicode="M" horiz-adv-x="1617" d="M145 0l381 1499h113l213 -1358l631 1358h123l-86 -1499h-84l77 1364l-634 -1364h-93l-206 1358l-349 -1358h-86z" />
<glyph unicode="N" horiz-adv-x="1327" d="M164 0l237 1499h84l641 -1345l213 1345h84l-237 -1499h-80l-643 1346l-215 -1346h-84z" />
<glyph unicode="O" horiz-adv-x="1388" d="M209 457q4 125 31 293q33 207 81 348t101 222t136 124t160 54t197 11q98 0 165 -10t131.5 -37.5t100.5 -82t58 -139.5q19 -71 19 -171q-1 -20 -1 -41q-4 -127 -30 -299q-31 -197 -76 -331t-99.5 -214t-135 -123t-161.5 -56t-202 -13q-98 0 -164.5 9t-132 35.5t-100.5 79 t-59 134.5q-20 70 -20 172q0 17 1 35zM294 446v-10q0 -109 20 -181q20 -75 75 -114t124 -52t181 -13q133 0 218 23.5t160 93t122 201.5t80 345q23 137 28 241q2 42 2 79q0 55 -4 99q-8 73 -33.5 122t-55 77.5t-82 44t-100.5 19.5t-122 4q-76 0 -121 -3t-104 -17t-96 -41 t-80 -76t-73 -121.5t-58 -180.5t-51 -247q-29 -177 -30 -293z" />
<glyph unicode="P" horiz-adv-x="1202" d="M154 0l237 1499h586q303 0 303 -307q0 -51 -8 -111q-18 -123 -57 -211t-78 -131t-99.5 -66.5t-97.5 -26.5t-98 -3q-66 0 -278 11.5t-220 15.5l-106 -670h-84zM352 729h502q129 0 214 71.5t118 282.5q6 75 8 129v10q0 48 -16 80q-18 36 -37 58t-52.5 33.5t-61.5 15.5 t-64 4h-502z" />
<glyph unicode="Q" horiz-adv-x="1398" d="M217 457q4 125 31 293q33 207 81 348t101 222t136 124t160 54t198 11q98 0 164.5 -10t131 -37.5t100.5 -82t58 -139.5q20 -72 20 -175q0 -18 -1 -37q-4 -127 -31 -299q-31 -197 -76 -331t-99 -214t-135 -123t-162 -56t-202 -13q-98 0 -164.5 9t-132 35.5t-100.5 79 t-59 134.5q-20 70 -20 172q0 17 1 35zM302 446v-10q0 -109 20 -181q20 -75 75.5 -114t124 -52t180.5 -13q133 0 218.5 23.5t160 93t121.5 201.5t80 345q23 137 28 241q2 42 2 79q0 55 -4 99q-8 73 -33.5 122t-55 77.5t-82 44t-100.5 19.5t-122 4q-76 0 -120.5 -3t-104 -17 t-96.5 -41t-80 -76t-72.5 -121.5t-58 -180.5t-51.5 -247q-29 -176 -30 -293zM647 -68h55q29 -68 88 -98q52 -26 106 -26h14q61 4 130 26l-14 -88q-59 -20 -124 -21h-6q-61 0 -114 19q-57 20 -95 69t-40 119z" />
<glyph unicode="R" horiz-adv-x="1251" d="M154 0l237 1499h590q298 0 298 -313q0 -53 -9 -115q-14 -111 -48 -192.5t-69 -123.5t-86 -67.5t-85 -32t-81 -8.5l221 -647h-92l-217 641q-57 2 -262 11.5t-207 11.5l-106 -664h-84zM354 729h502q129 0 214 72.5t114 273.5q9 65 9 116q-1 109 -41 155q-58 66 -183 67 h-506z" />
<glyph unicode="S" horiz-adv-x="1161" d="M162 20l8 62q154 -14 494 -14q317 0 356 251l20 140q5 35 5 64q1 73 -31 113q-44 56 -180 56h-248q-115 0 -186.5 29t-95.5 75t-32 104q-2 19 -3 39q0 39 10 79l22 135q16 111 57 184.5t104.5 110.5t132.5 50t161 13q225 -4 467 -43l-9 -57l-471 16q-14 1 -28 1 q-137 0 -217 -56q-88 -61 -113 -225l-23 -135q-6 -41 -6 -74q0 -84 42 -116q59 -44 198 -44h252q283 0 283 -242q0 -38 -7 -83l-20 -140q-14 -86 -49 -148.5t-77 -97t-102.5 -54t-111.5 -24.5t-117 -5q-90 0 -256 12t-229 24z" />
<glyph unicode="T" horiz-adv-x="1255" d="M285 1415l14 84h1081l-14 -84h-506l-223 -1415h-84l223 1415h-491z" />
<glyph unicode="U" horiz-adv-x="1376" d="M245 418q1 100 21 225l135 856h84l-135 -856q-18 -113 -20 -200v-37q0 -63 5 -110q7 -60 32.5 -102t53.5 -66t77 -36t92 -15t108 -3q86 0 146.5 10t126 44t109.5 94.5t83 166t64 254.5l135 856h84l-135 -856q-31 -199 -83 -328t-132 -200.5t-173.5 -98t-226.5 -26.5 q-72 0 -124 5t-108 20.5t-93 43t-69 76.5t-45 117q-12 63 -12 152v14z" />
<glyph unicode="V" horiz-adv-x="1368" d="M307 1499h88l273 -1380l731 1380h96l-795 -1499h-98z" />
<glyph unicode="W" horiz-adv-x="2021" d="M307 1499h84l275 -1380l708 1380h94l-294 -581l174 -805l708 1386h92l-768 -1499h-98l-172 797l-410 -797h-98z" />
<glyph unicode="X" horiz-adv-x="1150" d="M78 0l563 748l-332 751h92l299 -676l519 676h102l-582 -762l330 -737h-92l-295 659l-500 -659h-104z" />
<glyph unicode="Y" horiz-adv-x="1286" d="M307 1499h90l301 -860l615 860h100l-684 -967l-84 -532h-84l84 532z" />
<glyph unicode="Z" horiz-adv-x="1077" d="M72 0l14 84l1067 1331h-858l14 84h969l-14 -84l-1067 -1331h858l-15 -84h-968z" />
<glyph unicode="[" horiz-adv-x="581" d="M151 -101.5q-5 60.5 7 105.5l231 1462q51 340 334 340h121l-13 -84h-122q-193 0 -236 -256l-231 -1462q-20 -133 13.5 -200.5t137.5 -67.5h125l-14 -84h-123q-86 0 -140.5 38t-69.5 93t-20 115.5z" />
<glyph unicode="\" horiz-adv-x="856" d="M289 1577h76l303 -1724h-76z" />
<glyph unicode="]" horiz-adv-x="587" d="M-27 -348l15 84h123q193 0 235 254l232 1464q23 143 -16.5 205.5t-137.5 62.5h-123l14 84h123q72 0 120 -25.5t71.5 -62.5t33 -88t7.5 -92t-8 -84l-232 -1464q-10 -68 -28.5 -120t-53.5 -105.5t-99.5 -83t-152.5 -29.5h-123z" />
<glyph unicode="^" horiz-adv-x="849" d="M274 1087l304 267h77l191 -267h-72l-164 211l-254 -211h-82z" />
<glyph unicode="_" horiz-adv-x="1343" d="M39 -2l14 84h1258l-15 -84h-1257z" />
<glyph unicode="`" horiz-adv-x="471" d="M256 1360h96l209 -273h-67z" />
<glyph unicode="a" horiz-adv-x="1112" d="M162 324q-2 21 -1 43q0 88 23 204q23 133 63 230.5t81 152t98 89t102 46t105 19.5q33 4 69 4q88 0 193 -24q147 -34 221 -107l-143 -981h-55l-7 123q-66 -43 -185.5 -90t-223.5 -47q-76 0 -131.5 14t-105.5 52t-72.5 104t-30.5 168zM260 508q-13 -83 -13 -150 q0 -290 245 -290q29 0 54 1t53 7t45.5 8t49 12t41.5 13.5t47 17.5t42 16t47 20.5t44 18.5l113 776q-166 72 -311 72q-41 0 -80 -6q-164 -23 -249 -129t-128 -387z" />
<glyph unicode="b" horiz-adv-x="1122" d="M123 0l254 1608h80l-92 -586q98 37 219 59.5t196 22.5q303 0 303 -372q0 -91 -18 -204q-16 -104 -46 -191t-81 -172t-135 -132q-81 -45 -186 -45h-9q-96 2 -221 48t-164 85l-45 -121h-55zM233 178q213 -106 385 -106q131 0 228.5 116.5t134.5 350.5q16 106 16 187 q1 118 -33 184q-56 110 -196 110q-172 0 -410 -59z" />
<glyph unicode="c" horiz-adv-x="1007" d="M166 274q-1 21 -1 44q0 98 19 237q29 178 73 290.5t105.5 166t121 71t147.5 17.5q168 0 418 -56l-11 -57q-240 29 -422 29q-70 0 -115.5 -15.5t-93 -62.5t-82 -146.5t-59.5 -254.5q-17 -135 -17 -225v-10q1 -92 33.5 -142.5t75.5 -69t109 -18.5l446 37l-8 -62 q-211 -57 -444 -57q-82 0 -140.5 24.5t-103.5 87t-51 172.5z" />
<glyph unicode="d" horiz-adv-x="1087" d="M170 356q-2 28 -2 56q0 70 14 137q18 117 48 208t82.5 174t136 128t194.5 45q76 0 190.5 -22.5t200.5 -59.5l92 586h80l-254 -1608h-55l-8 121q-55 -41 -186.5 -87t-227.5 -46q-104 0 -175 52t-96.5 134t-33.5 182zM266 539q-14 -88 -13 -159q1 -120 39 -192 q62 -116 193 -116q168 0 412 106l125 783q-217 59 -389 59q-133 0 -228.5 -104.5t-138.5 -376.5z" />
<glyph unicode="e" horiz-adv-x="1089" d="M180 569q18 111 37 180.5t56.5 145.5t90 118t138.5 68.5t203 26.5q207 0 308 -72q83 -59 83 -183q0 -27 -4 -58q-16 -127 -102.5 -206t-197 -104.5t-229.5 -27.5h-33q-96 0 -166 10q-80 12 -112 25q-15 -102 -15 -178q0 -92 22 -146q40 -98 183 -100q21 -1 43 -1 q167 0 453 39l-10 -61q-217 -59 -490 -59q-193 0 -252 140q-31 74 -31 193q0 107 25 250zM260 549q14 -2 40 -5q26 -2 98 -8q61 -5 120 -5h20q68 1 152 15.5t146.5 41t110.5 80t59 127.5q4 25 4 48q0 91 -60 131q-74 50 -237 50q-104 0 -180 -26.5t-118 -54.5t-75 -101.5 t-42 -112.5t-30 -142q-6 -26 -8 -38z" />
<glyph unicode="f" horiz-adv-x="763" d="M188 1004l9 57l192 26l25 160q12 72 20 110t28.5 93t49.5 84t78 51.5t115 24.5q170 0 272 -33l-6 -51h-271q-98 0 -138 -63.5t-64 -215.5l-25 -160h356l-14 -83h-356l-160 -1004h-84l160 1004h-187z" />
<glyph unicode="g" horiz-adv-x="1103" d="M76 -508l8 53l485 -20h15q84 0 162 63q85 68 106 199l43 272q-96 -37 -216 -58t-198 -21q-152 0 -229.5 79.5t-82.5 208.5q-1 24 -1 49q0 111 18 246q41 260 158 398.5t301 138.5q76 0 158 -4t133 -9.5t117.5 -11.5t85.5 -8l-203 -1280q-29 -180 -140 -269 q-95 -77 -206 -77q-17 0 -35 2zM253 299q3 -109 60.5 -172.5t171.5 -63.5q152 0 420 66l142 881l-396 6h-5q-156 0 -250 -131q-95 -133 -126 -332q-17 -126 -17 -225v-29z" />
<glyph unicode="h" horiz-adv-x="1107" d="M123 0l254 1606h84l-103 -645q260 145 457 145q155 0 227 -102q55 -78 55 -181q0 -31 -5 -65l-121 -758h-84l121 758q4 29 4 56q0 82 -42 136q-56 72 -173 72q-121 0 -214.5 -27.5t-232.5 -95.5l-143 -899h-84z" />
<glyph unicode="i" horiz-adv-x="329" d="M123 0l172 1087h84l-172 -1087h-84zM313 1296l15 95q4 34 37 34h2h51q25 0 25 -25q0 -4 -1 -9l-14 -95q-4 -32 -35 -32h-2h-49h-2q-28 0 -27 25v7z" />
<glyph unicode="j" horiz-adv-x="354" d="M57 -553l260 1640h84l-174 -1095q-53 -348 -118 -545h-52zM334 1296l16 95q4 34 35 34h2h51q27 0 27 -27v-7l-16 -95q-4 -32 -35 -32h-2h-50h-2q-26 0 -26 25v7z" />
<glyph unicode="k" horiz-adv-x="980" d="M123 0l254 1602h84l-156 -981q246 12 418 156.5t215 309.5h92q-51 -188 -186 -314t-283 -177l371 -596h-101l-354 571q-45 -10 -99 -13q-32 -2 -55 -2q-15 0 -26 1l-90 -557h-84z" />
<glyph unicode="l" horiz-adv-x="624" d="M182 387l193 1217h84l-193 -1217q-10 -68 -12 -119v-16q0 -40 8 -66q10 -30 19.5 -49.5t33 -31t33.5 -14.5t37 -7q139 -27 150 -27l-11 -57h-135q-137 0 -189 94q-31 57 -31 154q0 61 13 139z" />
<glyph unicode="m" horiz-adv-x="1869" d="M123 0l172 1087h55l8 -129q260 145 447 146q98 0 168.5 -47t95.5 -123q100 68 239.5 119t260.5 51q149 0 227 -102q59 -77 59 -178q0 -33 -6 -68l-118 -756h-84l118 756q4 27 4 52q0 78 -43 136q-57 76 -170 76q-211 0 -471 -133q7 -21 6 -59q0 -31 -4 -74l-120 -754h-84 l121 756q3 25 3 47q-1 81 -45 141q-58 76 -169 76q-123 0 -214.5 -26.5t-230.5 -94.5l-141 -899h-84z" />
<glyph unicode="n" horiz-adv-x="1107" d="M123 0l172 1087h55l8 -126q260 145 453 145q155 0 229 -102q57 -79 57 -182q0 -31 -5 -64l-121 -758h-84l121 758q4 28 4 54q0 80 -42 136q-56 74 -173 74q-121 0 -214.5 -27.5t-232.5 -95.5l-143 -899h-84z" />
<glyph unicode="o" horiz-adv-x="1148" d="M184 539q51 326 170 442.5t377 116.5q256 0 338 -140q52 -89 52 -243q0 -88 -17 -197q-49 -301 -164 -414.5t-375 -113.5q-262 0 -345 126q-53 80 -53 231q0 85 17 192zM251 354v-8q1 -68 15 -116q16 -50 40 -80.5t67 -48t88 -22.5t112 -5q100 0 166 15t124.5 62.5 t95 139.5t61.5 237q19 95 19 167q1 22 -1 42q-8 86 -25.5 140.5t-63.5 84t-98 41t-132 11.5q-102 0 -163.5 -14.5t-123 -62.5t-99.5 -147.5t-65 -261.5q-16 -100 -17 -174z" />
<glyph unicode="p" horiz-adv-x="1099" d="M35 -553l264 1628q158 23 483 23q199 0 266 -158q43 -100 43 -239q0 -80 -14 -173q-18 -123 -50 -216t-84 -171t-134 -118.5t-191 -40.5q-80 0 -199.5 20.5t-203.5 56.5l-96 -612h-84zM227 123q208 -58 358 -58q21 0 40 1q154 4 241.5 117.5t126.5 361.5q15 96 15 172 q0 297 -236 297h-401z" />
<glyph unicode="q" horiz-adv-x="1130" d="M172 266q-2 28 -2 59q0 107 18 236q86 539 465 539q256 0 482 -29l-256 -1624h-84l96 612q-206 -79 -405 -79h-5q-150 0 -226.5 78.5t-82.5 207.5zM252 292q4 -108 62.5 -168.5t174.5 -60.5q168 0 412 60l141 893h-401q-160 0 -249 -133t-120 -334q-20 -130 -20 -228v-29 z" />
<glyph unicode="r" horiz-adv-x="827" d="M123 0l172 1087h53l8 -137q100 51 146.5 74t137.5 49.5t173 26.5q113 0 150 -17l-15 -82q-68 14 -149 15q-37 0 -70 -3t-68.5 -11.5t-57 -14.5t-63.5 -22.5t-58.5 -23.5t-68 -30.5t-67.5 -29.5l-139 -881h-84z" />
<glyph unicode="s" horiz-adv-x="1034" d="M131 12l8 58h523q37 0 58 3t57 16t58.5 50t32.5 97l19 102q3 18 3 34q0 51 -29 84q-38 44 -128 44h-280q-155 0 -215 50q-43 36 -43 123q0 34 6 75l16 98q20 131 95 193.5t229 62.5q242 0 491 -25l-10 -57h-494q-113 0 -163 -46t-64 -136l-16 -99q-4 -27 -4 -48t1 -36.5 t10 -28t14 -19.5t22.5 -12t24.5 -8t33 -4t34 -1h39h278q123 0 187 -69q50 -54 51 -135q0 -23 -4 -48l-19 -109q-12 -80 -42.5 -130t-79 -71.5t-87 -27.5t-98.5 -6q-72 0 -263.5 10t-250.5 16z" />
<glyph unicode="t" horiz-adv-x="727" d="M188 1006l11 61l186 23l70 303h61l-47 -303h344l-14 -84h-344l-99 -621q-10 -68 -11 -119v-9q-1 -45 9 -73q10 -30 19.5 -49.5t32 -31t34 -14.5t35.5 -7q139 -27 150 -27l-9 -57h-133q-222 0 -222 258q0 58 11 129l99 621h-183z" />
<glyph unicode="u" horiz-adv-x="1105" d="M154 332l120 758h84l-120 -758q-4 -29 -4 -56q0 -82 42 -136q56 -72 173 -72q123 0 217 27.5t231 92.5l141 902h84l-172 -1088h-55l-8 127q-256 -145 -451 -145q-156 0 -230 100q-57 77 -57 181q0 32 5 67z" />
<glyph unicode="v" horiz-adv-x="1077" d="M193 1087h86l245 -978l457 811q57 111 68 170h61q5 -17 5 -37q0 -62 -48 -152l-504 -901h-102z" />
<glyph unicode="w" horiz-adv-x="1644" d="M193 1087h83l242 -976l453 802q61 111 71 170h58q4 -14 4 -32q0 -60 -47 -156l-107 -193l144 -591l460 807q61 109 72 172h57q6 -20 6 -43q0 -64 -49 -146l-516 -901h-88l-145 600l-338 -600h-92z" />
<glyph unicode="x" horiz-adv-x="964" d="M49 0l479 547l-307 540h103l268 -471l414 471h108l-479 -546l305 -541h-102l-265 467l-411 -467h-113z" />
<glyph unicode="y" horiz-adv-x="1105" d="M193 1087h86l155 -849q14 -78 58 -115q44 -36 79 -36h2l37 1l412 842q43 88 55 168h62q7 -22 7 -48q0 -61 -40 -143l-442 -905q-138 -271 -232 -388q-126 -157 -233 -165v55q37 8 80 47t77.5 86.5t74.5 111t63.5 108.5t48 93t24.5 50q-25 2 -49 9t-61 27.5t-67 69 t-42 119.5z" />
<glyph unicode="z" horiz-adv-x="923" d="M92 2l12 84l811 918h-694l12 83h811l-12 -83l-809 -918h662q-12 -84 -13 -84h-780z" />
<glyph unicode="{" horiz-adv-x="573" d="M137 729l13 84q188 10 206 129l78 492q57 373 408 372l-15 -84q-131 2 -208.5 -66.5t-102.5 -230.5l-76 -483q-12 -72 -67.5 -118t-128.5 -58q68 -10 108.5 -58.5t30.5 -111.5l-90 -563q-27 -166 28.5 -233.5t192.5 -65.5l-14 -82q-352 0 -289 389l86 547 q12 66 -40 105.5t-120 35.5z" />
<glyph unicode="|" horiz-adv-x="460" d="M152 -147l272 1724h84l-272 -1724h-84z" />
<glyph unicode="}" horiz-adv-x="567" d="M-27 -348l15 82q133 0 208.5 62.5t100.5 215.5l88 555q10 66 65.5 114t127.5 58q-70 10 -110 57.5t-30 116.5l80 492q27 176 -28.5 250t-188.5 71l14 80q100 0 167 -35.5t92.5 -94t33.5 -131t-8 -148.5l-76 -479q-12 -72 40 -107t122 -37l-14 -82q-70 2 -132.5 -29.5 t-72.5 -99.5l-88 -557q-27 -164 -116 -259t-290 -95z" />
<glyph unicode="~" horiz-adv-x="964" d="M287 1171q6 4 26.5 20.5t27.5 22t25.5 18.5t27.5 18t25.5 14.5t28 13.5t25.5 9t28.5 7t28.5 2q43 0 118 -61t110 -61q23 0 45 5t51 20t40 21.5t45 29.5l34 24l16 -39q-2 -2 -26.5 -22.5t-29.5 -24.5t-27.5 -21.5t-32 -22.5t-29 -16.5t-32.5 -14.5t-31.5 -7t-35.5 -4 q-45 0 -118.5 61.5t-108.5 61.5q-27 0 -57.5 -9.5t-47 -18.5t-56.5 -32.5t-54 -31.5z" />
<glyph unicode="&#xa2;" horiz-adv-x="985" d="M144.5 316.5q-7.5 99.5 19.5 238.5q31 182 76 297t111.5 167t130 66.5t163.5 14.5l29 176h65l-28 -182q172 -14 319 -50l-10 -57q-240 29 -422 29q-70 0 -116 -15.5t-93 -62.5t-81 -146.5t-60 -254.5q-18 -143 -17.5 -234.5t33.5 -142.5t76 -69.5t109 -18.5q84 0 195.5 9 t181.5 18l71 10l-10 -62q-180 -49 -350 -55l-27 -170h-66l25 168q-74 0 -128 13t-102.5 50t-67.5 100.5t-26.5 163z" />
<glyph unicode="&#xa3;" horiz-adv-x="1169" d="M102 0l9 59l153 25l96 618h-147l8 52l152 22l41 258q14 92 38.5 165t52 121t69.5 83t79 53.5t92.5 28.5t99.5 12t109 2q51 0 141.5 -6t153.5 -11l64 -5l-13 -60h-350q-113 0 -180.5 -12t-126.5 -51t-92 -116t-53 -204l-41 -258l579 -22l-10 -52h-582l-96 -618h742 l-15 -84h-973z" />
<glyph unicode="&#xa5;" horiz-adv-x="1206" d="M217 375l8 59h381l25 164h-379l10 59h373l-346 842h92l311 -754l600 754h103l-668 -842h410l-11 -59h-411l-25 -164h410l-8 -59h-410l-55 -375h-84l55 375h-381z" />
<glyph unicode="&#xa8;" horiz-adv-x="915" d="M289 1192q4 25 24.5 41t45 16t39 -16t10 -41t-23.5 -42t-44 -17t-40 17t-11 42zM811 1192q4 25 24.5 41t45 16t39 -16t10.5 -41t-23.5 -42t-44 -17t-40 17t-11.5 42z" />
<glyph unicode="&#xa9;" horiz-adv-x="1730" d="M212 579.5q1 94.5 15 178.5q23 141 63 263t108.5 234.5t178 178t250.5 65.5h529q94 0 163.5 -37t106.5 -102.5t57.5 -140t21.5 -164.5t-4 -162t-18 -145q-33 -207 -102.5 -371t-188 -270.5t-266.5 -106.5h-528q-109 0 -188.5 54.5t-119.5 138t-59.5 188t-18.5 199z M276.5 514q10.5 -123 41 -222t105.5 -164t179 -65h533q162 0 297 181.5t188 509.5q23 139 22.5 252.5t-24 215t-90 158t-172.5 56.5h-537q-182 0 -324.5 -155.5t-203.5 -526.5q-25 -117 -14.5 -240zM586 752q72 442 366 442q145 0 357 -39l-6 -49q-170 25 -361 24 q-231 0 -293 -389q-61 -377 170 -376q223 0 383 32l-8 -49q-176 -47 -383 -47q-297 0 -225 451z" />
<glyph unicode="&#xab;" horiz-adv-x="1144" d="M217 725l485 418l54 -62l-422 -364l307 -365l-61 -55zM600 725l485 418l54 -62l-426 -362l313 -369l-63 -53z" />
<glyph unicode="&#xad;" d="M123 553l14 82h602l-14 -82h-602z" />
<glyph unicode="&#xae;" horiz-adv-x="1730" d="M212 578.5q1 93.5 15 177.5q16 111 44 210t77 199.5t112.5 172t159 116.5t207.5 45h529q94 0 163.5 -37t106.5 -102.5t57.5 -140t21.5 -164.5t-4 -162t-18 -145q-33 -207 -102.5 -371t-188 -270.5t-266.5 -106.5h-528q-109 0 -188.5 54.5t-119.5 137t-59.5 188t-18.5 199 zM275.5 514q9.5 -123 40 -222t104.5 -164t178 -65h537q162 0 297 181.5t188 509.5q23 139 22.5 252.5t-24 215t-90 158t-172.5 56.5h-537q-182 0 -324.5 -155.5t-203.5 -526.5q-25 -117 -15.5 -240zM586 313l137 875h362q260 0 220 -268q-8 -57 -26.5 -100.5t-37 -66 t-50.5 -35.5t-48.5 -16.5t-52 -6.5t-39.5 -3l155 -379h-71l-154 379l-270 15l-62 -394h-63zM717 750h311q102 0 149.5 34.5t63.5 141.5q18 111 -22.5 154.5t-128.5 43.5h-312z" />
<glyph unicode="&#xb4;" horiz-adv-x="434" d="M213 1087l281 273h102l-315 -273h-68z" />
<glyph unicode="&#xb8;" horiz-adv-x="540" d="M45 -354l6 35l84 18q78 14 116 59t54 166h70q-25 -160 -77 -219t-175 -59h-78z" />
<glyph unicode="&#xbb;" horiz-adv-x="1138" d="M166 360l432 371l-303 356l61 56l357 -422l-494 -424zM551 360l432 369l-303 361l61 53l357 -422l-494 -424z" />
<glyph unicode="&#xd3;" horiz-adv-x="1388" d="M209 457q4 125 31 293q33 207 81 348t101 222t136 124t160 54t197 11q98 0 165 -10t131.5 -37.5t100.5 -82t58.5 -139.5t18 -212t-30.5 -299q-31 -197 -76 -331t-99.5 -214t-135 -123t-161.5 -56t-202 -13q-98 0 -164.5 9t-132 35.5t-100.5 79t-58.5 134.5t-19.5 207z M294 446.5q-1 -116.5 19.5 -191.5t75.5 -114t124 -52t181 -13q133 0 218 23.5t160 93t122 201.5t80 345q23 137 28 241.5t-2.5 177.5t-33 122t-55 77.5t-82 44t-100.5 19.5t-122 4q-76 0 -121 -3t-104 -17t-96 -41t-80 -76t-73 -121.5t-58 -180.5t-51 -247 q-29 -176 -30 -292.5zM903 1632l281 273h100l-315 -273h-66z" />
<glyph unicode="&#xf3;" horiz-adv-x="1148" d="M184 539q51 326 170 442.5t377 116.5q256 0 338 -140.5t35 -439.5q-49 -301 -164 -414.5t-375 -113.5q-262 0 -345 126t-36 423zM251 354.5q-1 -73.5 14.5 -124t40 -81t67.5 -48t88 -22.5t112 -5q100 0 166 15t124.5 62.5t95 139.5t61.5 237q25 123 17.5 209t-25 140.5 t-63.5 84t-98 41t-132 11.5q-102 0 -163.5 -14.5t-123 -62.5t-99.5 -147.5t-65 -261.5q-16 -100 -17 -173.5zM719 1221l280 272h101l-316 -272h-65z" />
<glyph unicode="&#x104;" horiz-adv-x="1773" d="M301 0l795 1499h98l295 -1499h-16q-109 -53 -153 -129t-4 -130t152 -50l-8 -62q-119 -16 -188.5 49.5t-31.5 163t190 158.5h-25l-96 483h-658l-256 -483h-94zM696 567h596l-159 828z" />
<glyph unicode="&#x105;" horiz-adv-x="1075" d="M148.5 323.5q-7.5 102.5 21.5 247.5q23 133 61.5 230.5t79.5 152t98.5 89t101.5 46t105 19.5q115 14 263.5 -20.5t222.5 -106.5l-144 -981h-6q-109 -53 -152.5 -129t-3.5 -130t152 -50l-8 -62q-119 -16 -188.5 49.5t-31.5 163t189 158.5h-8l-6 123q-66 -43 -185.5 -90 t-222.5 -47q-76 0 -131 14t-105 52t-72.5 103.5t-30 168zM244 508q-68 -440 231 -440q29 0 54.5 2t53 6t47 7t48.5 13t43 13.5t46 16.5t41 17t46 19.5t45 19.5l115 776q-217 92 -393 66q-162 -23 -247 -129t-130 -387z" />
<glyph unicode="&#x106;" horiz-adv-x="1163" d="M215.5 526.5q2.5 110.5 22.5 237.5q31 190 70.5 319t109 232.5t177 152t259.5 48.5q174 0 453 -54l-9 -59q-248 31 -454 29q-98 0 -170 -25t-142.5 -94.5t-123 -209.5t-86.5 -353q-106 -670 305 -678q170 -2 465 22l-9 -61q-215 -45 -467 -45q-111 0 -191.5 42 t-125.5 113.5t-65.5 172t-18 211zM852 1638l283 273h100l-315 -273h-68z" />
<glyph unicode="&#x107;" horiz-adv-x="1007" d="M165.5 321.5q-6.5 98.5 18.5 233.5q29 178 74 290.5t106.5 166t121 71t145.5 17.5q168 0 418 -56l-9 -57q-240 29 -422 29q-70 0 -115.5 -15.5t-93 -62.5t-82 -146.5t-61.5 -254.5q-18 -143 -17 -234.5t34.5 -142.5t76.5 -69.5t109 -18.5l446 37l-10 -62 q-211 -57 -444 -57q-66 0 -115 15t-92 52t-62.5 101.5t-26 163zM680 1223l283 272h100l-315 -272h-68z" />
<glyph unicode="&#x118;" horiz-adv-x="1148" d="M205 258l155 981q45 270 299 260l619 -24l-8 -60h-623q-174 0 -203 -182l-71 -447l712 -14l-10 -59l-717 -15l-69 -446q-10 -57 0 -95t39.5 -53.5t57.5 -20.5t71 -5h602l-10 -60h-2q-109 -51 -153 -126.5t-4 -130t152 -52.5l-8 -61q-70 -10 -127 12.5t-81.5 65.5 t-22.5 94t53 104t143 92l-557 -22q-119 -6 -190.5 54t-46.5 210z" />
<glyph unicode="&#x119;" horiz-adv-x="1089" d="M180 569q20 111 39 180.5t55.5 145.5t89 117t138.5 68.5t203 27.5q207 0 308 -71.5t79 -241.5q-16 -127 -102.5 -206t-197 -104.5t-229.5 -27.5t-199.5 10t-111.5 25q-31 -225 10 -323.5t182 -100.5q170 -6 494 38l-8 -61h-2q-109 -53 -153 -129t-4 -130t153 -50l-9 -62 q-84 -10 -145 23t-80.5 87t16 121.5t130.5 117.5q-172 -37 -396 -37q-195 0 -254 140t-6 443zM260 549q14 -2 40 -5t98.5 -8.5t140 -4.5t151.5 15.5t147.5 41t111.5 80t59 127.5q18 129 -56.5 179t-238.5 50q-76 0 -135.5 -12.5t-100.5 -30.5t-73.5 -53t-52 -66t-36 -83 t-25.5 -89t-22 -100q-6 -27 -8 -41z" />
<glyph unicode="&#x141;" horiz-adv-x="1110" d="M104 709l11 71l182 74l102 645h84l-96 -610l277 112l-13 -67l-276 -113l-88 -563q-10 -57 0 -95t39.5 -53.5t57.5 -20.5t71 -5h585l-12 -84h-584q-57 0 -100 10t-83 36t-55.5 80t-2.5 132l84 526z" />
<glyph unicode="&#x142;" horiz-adv-x="675" d="M139 797l13 69l159 72l105 666h86l-99 -623l302 135l-15 -69l-297 -138l-86 -522q-10 -96 -13 -151.5t19.5 -88t46 -45t66.5 -18.5q139 -27 149 -27l-8 -57h-143q-127 0 -180.5 90t-20.5 297l76 483z" />
<glyph unicode="&#x143;" horiz-adv-x="1327" d="M164 0l237 1499h84l641 -1345l213 1345h84l-237 -1499h-80l-643 1346l-215 -1346h-84zM901 1632l281 273h100l-315 -273h-66z" />
<glyph unicode="&#x144;" horiz-adv-x="1107" d="M123 0l172 1087h55l8 -126q260 145 453 145q156 0 229.5 -102.5t51.5 -245.5l-121 -758h-84l121 758q18 117 -38.5 190.5t-172.5 73.5q-121 0 -214.5 -27.5t-232.5 -95.5l-143 -899h-84zM709 1229l280 272h103l-316 -272h-67z" />
<glyph unicode="&#x15a;" horiz-adv-x="1161" d="M154 20l8 62q154 -14 493 -14q315 0 357 251l20 140q18 121 -26.5 177t-180.5 56h-247q-115 0 -187 29t-96.5 75t-31.5 104t7 118l23 135q16 111 57 184.5t104.5 110.5t132 50t161.5 13q225 -4 466 -43l-8 -57l-471 16q-158 6 -246 -55t-112 -225l-23 -135 q-23 -147 36 -190.5t198 -43.5h252q328 0 276 -325l-20 -140q-14 -86 -49 -148.5t-77 -97t-102.5 -54t-111.5 -24.5t-117 -5q-92 0 -257 12t-228 24zM803 1634l280 273h101l-316 -273h-65z" />
<glyph unicode="&#x15b;" horiz-adv-x="1034" d="M143 12l9 58h522q37 0 58.5 3t57 16t58 50t33.5 97l18 102q12 74 -25.5 118t-128.5 44h-280q-156 0 -215.5 50t-36.5 198l16 98q20 131 95 193.5t229 62.5q242 0 491 -25l-10 -57h-493q-113 0 -164 -46t-64 -136l-16 -99q-4 -27 -4 -48t1 -36.5t10 -28t14.5 -19.5 t22.5 -12t24.5 -8t33 -4t33.5 -1h39h279q123 0 187 -69t46 -183l-18 -109q-12 -80 -43 -130t-79 -71.5t-87 -27.5t-99 -6q-72 0 -263.5 10t-250.5 16zM651 1225l281 272h102l-315 -272h-68z" />
<glyph unicode="&#x179;" horiz-adv-x="1077" d="M143 0l15 84l1069 1331h-858l12 84h971l-15 -84l-1069 -1331h858l-12 -84h-971zM854 1628l281 273h100l-315 -273h-66z" />
<glyph unicode="&#x17a;" horiz-adv-x="923" d="M125 2l12 84l811 918h-694l12 83h811l-12 -83l-809 -918h662q-12 -84 -13 -84h-780zM659 1217l281 272h100l-315 -272h-66z" />
<glyph unicode="&#x17b;" horiz-adv-x="1077" d="M72 0l14 84l1067 1331h-858l14 84h969l-14 -84l-1067 -1331h858l-15 -84h-968zM719 1638l20 121q4 35 37 35h51q31 0 27 -35l-20 -121q-4 -33 -37 -32h-49q-33 -1 -29 32z" />
<glyph unicode="&#x17c;" horiz-adv-x="923" d="M92 2l12 84l811 918h-694l12 83h811l-12 -83l-809 -918h662q-12 -84 -13 -84h-780zM608 1253l19 121q6 33 39 33h49q35 0 26 -33l-18 -121q-6 -33 -37 -32h-49q-35 -1 -29 32z" />
<glyph unicode="&#x2c6;" horiz-adv-x="681" d="M135 1087l303 267h78l191 -267h-70l-166 213l-256 -213h-80z" />
<glyph unicode="&#x2da;" horiz-adv-x="681" d="M287 1294q12 88 81.5 149.5t155.5 61.5t138.5 -61.5t40 -149.5t-80 -148.5t-153.5 -60.5t-140 61.5t-42 147.5zM340 1294q-8 -63 31 -109t104 -46q63 0 114.5 45t62 110.5t-29.5 111.5t-103.5 46t-116 -46t-62.5 -112z" />
<glyph unicode="&#x2dc;" horiz-adv-x="976" d="M274 1171q162 123 244 123q47 -2 123 -62.5t104 -60.5q78 0 216 97l16 -39q-2 -2 -25.5 -20.5t-28.5 -21.5t-25.5 -18.5t-28 -19.5t-25 -14.5t-27.5 -14.5t-26.5 -9t-29.5 -7t-28 -2q-49 0 -120.5 61.5t-104.5 61.5q-25 0 -45.5 -4t-47 -16.5t-37.5 -18.5t-45 -27.5 t-42 -25.5z" />
<glyph unicode="&#x2000;" horiz-adv-x="955" />
<glyph unicode="&#x2001;" horiz-adv-x="1911" />
<glyph unicode="&#x2002;" horiz-adv-x="955" />
<glyph unicode="&#x2003;" horiz-adv-x="1911" />
<glyph unicode="&#x2004;" horiz-adv-x="637" />
<glyph unicode="&#x2005;" horiz-adv-x="477" />
<glyph unicode="&#x2006;" horiz-adv-x="318" />
<glyph unicode="&#x2007;" horiz-adv-x="318" />
<glyph unicode="&#x2008;" horiz-adv-x="238" />
<glyph unicode="&#x2009;" horiz-adv-x="382" />
<glyph unicode="&#x200a;" horiz-adv-x="106" />
<glyph unicode="&#x2010;" d="M123 553l14 82h602l-14 -82h-602z" />
<glyph unicode="&#x2011;" d="M123 553l14 82h602l-14 -82h-602z" />
<glyph unicode="&#x2012;" d="M123 553l14 82h602l-14 -82h-602z" />
<glyph unicode="&#x2013;" horiz-adv-x="901" d="M123 545l14 86h969l-14 -86h-969z" />
<glyph unicode="&#x2014;" horiz-adv-x="1513" d="M121 549l14 86h1426l-15 -86h-1425z" />
<glyph unicode="&#x2018;" horiz-adv-x="415" d="M330 1178l32 208q19 117 124 113l20 -2l-6 -35q-51 2 -58 -49l-10 -70h19q39 0 32 -40l-20 -125q-6 -43 -47 -43h-56q-36 0 -30 43z" />
<glyph unicode="&#x2019;" horiz-adv-x="415" d="M332 1137l6 34q49 -2 55 48l13 71h-19q-39 0 -33 39l21 127q10 43 47 43h53q41 0 33 -43l-35 -211q-10 -61 -45 -88t-66 -23z" />
<glyph unicode="&#x201a;" horiz-adv-x="415" d="M127 -156l6 35q49 -2 55 49l13 72h-19q-39 0 -32 39l20 127q6 43 45 43h55q39 0 31 -43l-33 -211q-19 -116 -123 -113z" />
<glyph unicode="&#x201c;" horiz-adv-x="632" d="M319 1178l31 208q19 116 121 113q20 -2 21 -2l-5 -35q-31 2 -42 -12t-15 -37l-10 -70h16q16 0 26.5 -11t8.5 -29l-20 -125q-6 -43 -48 -43h-55q-37 0 -29 43zM559 1178l33 208q19 116 121 113l20 -2l-4 -35q-51 2 -57 -49l-10 -70h16q39 0 33 -40l-19 -125 q-6 -43 -47 -43h-53q-39 0 -33 43z" />
<glyph unicode="&#x201d;" horiz-adv-x="630" d="M319 1137l7 34q16 0 27.5 3.5t16.5 14.5t6 14t5 16l10 71h-16q-39 0 -33 39l20 127q6 43 46 43h55q37 0 31 -43l-33 -211q-10 -61 -45 -88t-66 -23zM561 1137l4 34q51 -2 58 48l10 71h-17q-39 0 -32 39l20 127q6 43 45 43h56q37 0 30 -43l-33 -211q-10 -61 -44.5 -88 t-65.5 -23z" />
<glyph unicode="&#x201e;" horiz-adv-x="630" d="M115 -152l6 35q23 0 35 9.5t14 16.5t6 23l10 70h-16q-39 0 -33 41l21 125q6 45 45 45h55q39 0 31 -45l-33 -209q-19 -116 -121 -113zM356 -152l4 35q51 -2 58 49l10 70h-16q-39 0 -33 41l20 125q6 45 45 45h56q39 0 30 -45l-32 -209q-19 -116 -121 -113z" />
<glyph unicode="&#x2026;" horiz-adv-x="1523" d="M299 33l23 123q4 33 38 32h52q33 0 28 -32l-22 -123q-6 -33 -37 -33h-53q-33 0 -29 33zM856 33l23 123q4 33 39 32h51q33 0 28 -32l-22 -123q-6 -33 -37 -33h-51q-35 0 -31 33zM1411 33l21 123q6 33 38 32h54q33 0 26 -32l-20 -123q-6 -33 -37 -33h-53q-33 0 -29 33z" />
<glyph unicode="&#x202f;" horiz-adv-x="382" />
<glyph unicode="&#x2039;" horiz-adv-x="583" d="M78 725l487 416l53 -60l-428 -364l314 -363l-62 -55z" />
<glyph unicode="&#x203a;" horiz-adv-x="755" d="M217 360l434 369l-305 361l57 51l361 -420l-496 -422z" />
<glyph unicode="&#x205f;" horiz-adv-x="477" />
<glyph unicode="&#x20ac;" horiz-adv-x="1482" d="M143 545l9 51l182 10l41 260l-178 11l8 47l180 12q33 219 100 333q143 247 471 247q209 0 455 -48l-10 -61q-33 2 -84 7t-173 11.5t-198 6.5q-127 0 -217 -40t-140 -117t-76 -152.5t-44 -186.5l547 -10l-8 -49l-549 -11l-41 -260l545 -10l-9 -51q-35 0 -92 -1t-178 -3 t-201 -3t-77 -3q-39 -221 47 -340t274 -123q215 -4 475 28l-10 -59q-213 -53 -469 -53q-47 0 -90 7t-100.5 27.5t-97.5 58.5t-76.5 98.5t-43 147.5t6.5 208z" />
<glyph unicode="&#x2122;" horiz-adv-x="1292" d="M96 1436l10 63h531l-10 -63h-234l-102 -652h-64l105 652h-236zM604 784l168 715h53l166 -610l332 610h66l-50 -715h-61l39 570l-311 -570h-50l-157 572l-133 -572h-62z" />
<glyph unicode="&#xe000;" horiz-adv-x="1085" d="M0 1085h1085v-1085h-1085v1085z" />
</font>
</defs>
</svg>
